<svg width="80" height="80" viewBox="0 0 80 80" fill="none" xmlns="http://www.w3.org/2000/svg">
<g clip-path="url(#clip0)">
<path d="M58.9777 60.8978L53.7549 55.675L59.8468 45.4755C60.9094 43.6945 62.7985 42.6984 64.7412 42.6984C65.6586 42.6984 66.5875 42.9205 67.4481 43.3856C70.003 44.7656 71.0907 47.8302 70.0378 50.4895L58.9777 60.8978Z" fill="#E8B182"/>
<path d="M61.3245 24.2413V53.7714H26.8182V24.2413L27.6361 23.4186L27.6428 23.4119L44.0723 6.86035L60.5017 23.4119L60.5084 23.4186L61.3245 24.2413Z" fill="#E6E6E6"/>
<path d="M61.3245 24.2413V30.2808L44.0723 15.1001L26.8182 30.2808V24.2413L27.6361 23.4186L27.6428 23.4119L44.0723 8.9563L60.5017 23.4119L60.5084 23.4186L61.3245 24.2413Z" fill="#CCCCCC"/>
<path d="M63.6218 29.2828L44.0723 12.0813L24.5221 29.2828L21.4752 25.8197L44.0723 5.9375L66.6687 25.8197L63.6218 29.2828Z" fill="#F45395"/>
<path d="M36.1469 27.6367H51.9977V43.4875H36.1469V27.6367Z" fill="#C0E5F2"/>
<path d="M51.9977 44.7119H36.1469C35.4706 44.7119 34.9225 44.1638 34.9225 43.4875V27.6367C34.9225 26.9605 35.4706 26.4124 36.1469 26.4124H51.9977C52.674 26.4124 53.222 26.9605 53.222 27.6367V43.4875C53.222 44.1638 52.674 44.7119 51.9977 44.7119ZM37.3712 42.2632H50.7727V28.8611H37.3712V42.2632Z" fill="#61B4D8"/>
<path d="M26.8243 32.3364L34.7589 30.8356C35.1917 30.7544 35.6213 30.7147 36.0455 30.7147C39.1901 30.7147 42.0148 32.8735 42.7557 36.0425C43.5968 39.6393 41.4532 43.2605 37.8955 44.2548L24.7235 47.9346L42.854 56.4667C45.0354 57.4939 47.525 57.6569 49.8236 56.9257L72.1271 49.8218C75.1184 48.8684 78.3411 50.3674 79.541 53.2703C79.8517 54.0228 80 54.8029 80 55.5719C80 57.9083 78.6353 60.1306 76.3593 61.1163H76.3574L47.6324 73.5522C45.2716 74.5746 42.5958 74.6008 40.2136 73.6261L9.53491 61.0663H0V41.4398H5.10864C5.73364 38.3984 8.13232 35.8691 11.3928 35.2539L26.8243 32.3364Z" fill="#FFD0A6"/>
<path d="M76.3574 61.1163L47.6324 73.5523C45.2716 74.5746 42.5958 74.6008 40.2136 73.6261L9.53491 61.0663H0V41.4398H5.10864C5.73364 38.3984 8.13232 35.8691 11.3928 35.2539L14.3231 34.7003C14.3182 34.7021 14.317 34.7021 14.317 34.7021C14.317 34.7021 17.0844 65.1331 41.5509 68.537C50.7007 69.6015 68.8245 56.6791 76.3574 61.1163Z" fill="#E8B182"/>
<path d="M24.724 47.9351H24.7222L24.7211 47.9334" fill="#FFD0A6"/>
</g>
<defs>
<clipPath id="clip0">
<rect width="80" height="80" fill="white"/>
</clipPath>
</defs>
</svg>
